<svg xmlns="http://www.w3.org/2000/svg" width="67.021" height="47.872" viewBox="0 0 67.021 47.872">
    <defs>
        <style>
            .cls-1{fill:#fff}
        </style>
    </defs>
    <path id="iconfinder_back-alt_134226" d="M62.234 19.149H16.277L27.335 8.09a4.538 4.538 0 0 0 1.388-3.3A4.843 4.843 0 0 0 23.936 0a4.515 4.515 0 0 0-3.3 1.388L1.585 20.437A4.589 4.589 0 0 0 0 23.936 4.34 4.34 0 0 0 1.546 27.4l19.087 19.084a4.515 4.515 0 0 0 3.3 1.388 4.841 4.841 0 0 0 4.787-4.787 4.538 4.538 0 0 0-1.388-3.3L16.277 28.723h45.957a4.787 4.787 0 1 0 0-9.574z" class="cls-1" transform="rotate(180 33.511 23.936)"/>
</svg>
