<svg xmlns="http://www.w3.org/2000/svg" width="49.6" height="49.6" viewBox="0 0 49.6 49.6">
    <defs>
        <style>
            .cls-1{fill:#fff}
        </style>
    </defs>
    <g id="instagram">
        <path id="Trazado_1" d="M28.2 16.7A12.8 12.8 0 1 0 41 29.5a12.825 12.825 0 0 0-12.8-12.8zm0 21a8.2 8.2 0 1 1 8.2-8.2 8.237 8.237 0 0 1-8.2 8.2z" class="cls-1" data-name="Trazado 1" transform="translate(-3.4 -4.8)"/>
        <circle id="Elipse_1" cx="2.9" cy="2.9" r="2.9" class="cls-1" data-name="Elipse 1" transform="translate(35.2 8.7)"/>
        <path id="Trazado_2" d="M49 8.9a14.242 14.242 0 0 0-10.5-4.1H17.9c-8.7 0-14.5 5.8-14.5 14.5v20.5a14.389 14.389 0 0 0 4.2 10.7A14.594 14.594 0 0 0 18 54.4h20.4a14.766 14.766 0 0 0 10.5-3.9A14.316 14.316 0 0 0 53 39.9V19.3a14.335 14.335 0 0 0-4-10.4zm-.4 31a9.771 9.771 0 0 1-2.9 7.3 10.337 10.337 0 0 1-7.3 2.6H18a10.337 10.337 0 0 1-7.3-2.6A10.052 10.052 0 0 1 8 39.8V19.3a9.969 9.969 0 0 1 2.7-7.3A10.169 10.169 0 0 1 18 9.4h20.6a9.969 9.969 0 0 1 7.3 2.7 10.319 10.319 0 0 1 2.7 7.2v20.6z" class="cls-1" data-name="Trazado 2" transform="translate(-3.4 -4.8)"/>
    </g>
</svg>
