<svg xmlns="http://www.w3.org/2000/svg" width="49.263" height="40.034" viewBox="0 0 49.263 40.034">
    <defs>
        <style>
            .cls-1{fill:#566378}
        </style>
    </defs>
    <path id="twitter" d="M52.837 15.065a20.11 20.11 0 0 1-5.805 1.591 10.125 10.125 0 0 0 4.444-5.592 20.232 20.232 0 0 1-6.418 2.454 10.115 10.115 0 0 0-17.221 9.218A28.7 28.7 0 0 1 7 12.176a10.119 10.119 0 0 0 3.132 13.494 10.078 10.078 0 0 1-4.578-1.27v.128a10.115 10.115 0 0 0 8.108 9.91A10.162 10.162 0 0 1 11 34.8a10.014 10.014 0 0 1-1.9-.182 10.118 10.118 0 0 0 9.441 7.019 20.394 20.394 0 0 1-14.967 4.182 28.6 28.6 0 0 0 15.493 4.541c18.591 0 28.756-15.4 28.756-28.756q0-.657-.028-1.309a20.47 20.47 0 0 0 5.042-5.23z" class="cls-1" transform="translate(-3.574 -10.326)"/>
</svg>
